<svg xmlns="http://www.w3.org/2000/svg" viewBox="0 0 64 64" fill="none">
  <!-- Yggdrasil - World Tree silhouette -->
  <path d="M32 56V32" stroke="#2E4A2E" stroke-width="4" stroke-linecap="round"/>
  <path d="M32 32C32 32 24 28 20 20C16 12 20 8 28 8C32 8 36 8 40 8C44 8 48 12 44 20C40 28 32 32 32 32Z" fill="#2E4A2E"/>
  <path d="M24 56C24 52 28 48 32 48C36 48 40 52 40 56" stroke="#2E4A2E" stroke-width="3" stroke-linecap="round"/>
  <path d="M28 32C24 34 18 36 14 34" stroke="#2E4A2E" stroke-width="2" stroke-linecap="round"/>
  <path d="M36 32C40 34 46 36 50 34" stroke="#2E4A2E" stroke-width="2" stroke-linecap="round"/>
  <circle cx="32" cy="16" r="6" fill="#F5E8C7" opacity="0.3"/>
</svg>
